<?xml version="1.0" encoding="UTF-8" standalone="no"?>
<svg width="134px" height="34px" viewBox="0 0 134 34" version="1.1" xmlns="http://www.w3.org/2000/svg" xmlns:xlink="http://www.w3.org/1999/xlink">
    <!-- Generator: Sketch 40 (33762) - http://www.bohemiancoding.com/sketch -->
    <title>Lucy’s Kitchen</title>
    <desc>Created with Sketch.</desc>
    <defs></defs>
    <g id="Symbols" stroke="none" stroke-width="1" fill="none" fill-rule="evenodd">
        <g id="Header" transform="translate(-199.000000, -38.000000)" fill="#5B0D8D">
            <g id="Lucy’s-Kitchen">
                <path d="M201.76,58.208 C204.128,53.088 207.04,48.16 208.704,45.12 C210.016,42.752 209.888,41.408 209.504,40.608 C209.312,40.192 209.024,40.16 208.736,40.544 C206.784,43.264 201.504,52.96 199.968,56.928 C199.648,57.76 199.648,58.24 199.872,58.784 C200.032,59.168 200.416,59.744 200.704,60.16 C201.056,60.672 201.376,60.672 202.144,60.48 C204,60 207.52,59.2 209.12,59.232 C209.536,59.232 209.536,59.008 209.44,58.752 C209.088,57.792 208.224,57.184 206.624,57.312 C205.408,57.408 203.584,57.728 201.76,58.208 L201.76,58.208 Z M217.312,57.408 C217.056,59.264 217.888,60.576 219.968,60.576 C221.856,60.576 223.84,58.944 224.768,57.152 C225.216,56.256 225.184,55.392 225.056,55.136 C224.928,54.848 224.64,54.88 224.48,55.168 C223.232,57.408 221.6,59.52 220.256,59.584 C219.104,59.648 218.976,58.304 219.808,56.48 C220.544,54.848 222.144,52.448 222.848,51.008 C223.616,49.408 223.36,48 222.88,47.424 C222.624,47.104 222.4,47.168 222.08,47.616 C221.056,48.992 220.128,51.2 218.112,54.464 C216.384,57.248 214.624,59.488 213.376,59.392 C212.64,59.328 212.544,58.176 213.216,56.608 C213.888,55.072 214.528,53.792 215.712,51.904 C216.864,50.08 217.024,48.64 216.32,47.584 C216.064,47.296 215.744,47.264 215.488,47.616 C213.408,50.528 211.776,53.664 211.072,55.776 C210.368,57.888 210.432,60.256 212.704,60.416 C214.496,60.544 216.192,58.912 217.312,57.408 L217.312,57.408 Z M231.648,47.648 C230.048,46.688 226.816,48.416 224.768,52.448 C222.688,56.576 224.064,60.544 228.128,60.48 C230.56,60.448 233.088,58.88 234.304,56.992 C234.848,56.128 234.976,55.328 234.88,55.072 C234.752,54.752 234.464,54.784 234.304,55.04 C232.992,57.056 230.688,59.616 228,59.584 C226.112,59.552 225.44,56.896 227.2,53.28 C228.64,50.368 231.04,48.32 231.584,48.768 C232.032,49.12 231.072,50.496 230.72,51.648 C230.272,53.088 230.72,54.048 231.488,54.432 C231.904,54.656 232.032,54.56 232.16,54.176 C232.8,52.448 234.08,50.752 233.408,49.408 C233.024,48.672 232.512,48.16 231.648,47.648 L231.648,47.648 Z M246.048,56.896 C246.592,56.064 246.688,55.328 246.624,55.04 C246.56,54.72 246.272,54.752 246.112,54.976 C244.832,56.736 242.944,58.56 240.448,59.904 C241.792,56.8 243.744,52.96 244.704,51.104 C245.536,49.472 245.28,48.096 244.832,47.52 C244.544,47.264 244.32,47.328 244.032,47.744 C242.912,49.376 241.536,52.256 240.16,54.624 C238.528,57.408 236.928,59.456 235.68,59.36 C234.944,59.296 234.88,58.176 235.52,56.608 C236.128,55.104 236.832,53.792 237.984,51.936 C239.168,50.048 239.36,48.704 238.592,47.68 C238.368,47.36 238.048,47.328 237.792,47.68 C235.712,50.56 234.144,53.728 233.44,55.776 C232.704,57.888 232.768,60.224 235.072,60.416 C236.352,60.512 237.568,59.68 238.56,58.656 C238.208,59.424 237.888,60.224 237.568,60.96 C234.4,62.208 231.68,64.128 230.72,67.008 C230.08,68.896 230.72,70.016 231.36,70.976 C231.968,71.872 232.576,71.872 233.184,71.648 C235.84,70.624 238.112,65.472 239.904,61.184 C242.56,60.096 244.8,58.88 246.048,56.896 L246.048,56.896 Z M237.024,62.304 C235.04,67.008 232.416,70.496 232,69.888 C231.424,69.088 232.864,64.704 237.024,62.304 L237.024,62.304 Z M247.968,45.92 C248.832,44.896 250.336,42.784 251.072,41.6 C251.424,41.024 251.712,40.288 251.488,39.68 C251.36,39.328 251.104,39.2 250.688,39.648 C249.6,40.864 247.744,44.224 247.008,45.792 C246.88,46.112 246.944,46.336 247.136,46.368 C247.36,46.4 247.616,46.336 247.968,45.92 L247.968,45.92 Z M246.944,54.752 C246.912,54.496 246.912,54.24 246.88,53.984 C246.848,53.472 246.592,53.344 246.208,53.664 C245.12,54.56 245.024,56.672 245.792,58.112 C246.88,60.096 248.672,60.576 250.528,60.512 C252.8,60.416 254.976,59.2 256.192,56.992 C256.736,56 256.768,55.168 256.64,54.88 C256.512,54.624 256.192,54.528 256.032,54.88 C255.232,56.608 253.888,58.528 251.744,59.328 C252.896,58.56 253.12,57.216 253.184,55.968 C253.28,53.76 252.672,51.264 252.896,48.32 C253.024,48.096 253.12,47.904 253.248,47.712 C253.664,46.976 253.824,46.624 253.504,46.304 C253.216,46.016 252.48,46.144 251.776,46.784 C251.104,47.392 250.784,48 250.624,49.248 C249.696,50.88 248.256,52.96 246.944,54.752 L246.944,54.752 Z M250.56,51.296 C250.688,53.856 251.168,58.88 249.696,59.328 C248.64,59.648 247.712,58.336 247.232,56.48 C248.448,54.752 249.632,52.992 250.56,51.296 L250.56,51.296 Z M266.4,53.28 C267.968,55.552 269.376,57.856 270.592,60.224 C270.752,60.512 270.976,60.512 271.168,60.288 C271.648,59.68 271.936,58.56 271.168,56.736 C270.784,55.84 269.92,54.368 268.896,52.736 C273.216,49.696 277.568,45.792 279.008,43.84 C280.16,42.272 280.192,41.184 280,40.48 C279.872,40.192 279.616,40.16 279.392,40.416 C276.352,43.712 271.872,47.712 267.68,50.848 C268.832,48.704 269.888,46.816 270.72,45.312 C272.032,42.912 271.872,41.376 271.456,40.64 C271.2,40.224 270.976,40.192 270.688,40.576 C268.736,43.296 263.232,54.144 262.432,56.864 C261.856,58.784 262.112,59.712 262.592,60.384 C262.784,60.64 262.976,60.576 263.104,60.288 C264.16,57.824 265.28,55.424 266.4,53.28 L266.4,53.28 Z M281.888,45.312 C281.472,44.448 280.544,44.064 280.032,44.608 C279.52,45.152 279.36,46.112 279.872,46.976 C280.352,47.808 281.248,47.904 281.664,47.456 C282.08,47.008 282.304,46.144 281.888,45.312 L281.888,45.312 Z M276.672,60.48 C278.464,60.48 280.48,59.136 281.44,57.152 C281.824,56.352 281.92,55.68 281.664,55.168 C281.536,54.912 281.312,54.88 281.152,55.168 C280.192,57.376 278.432,59.488 276.992,59.552 C275.968,59.616 275.904,58.368 276.672,56.512 C277.344,54.912 278.688,52.736 279.36,51.328 C280.128,49.728 279.872,48.352 279.392,47.84 C279.136,47.552 278.912,47.648 278.624,48.032 C277.44,49.696 275.328,53.472 274.528,55.808 C273.632,58.432 274.24,60.48 276.672,60.48 L276.672,60.48 Z M284.896,47.552 C283.52,50.08 282.176,52.768 281.504,54.368 C279.968,58.048 281.664,60.416 283.776,60.48 C286.336,60.576 288.448,57.76 288.864,56.832 C289.184,56.096 289.344,55.52 289.184,55.008 C289.056,54.56 288.704,54.624 288.512,55.008 C287.328,57.408 285.504,59.68 284.064,59.616 C282.72,59.552 282.368,57.568 283.424,55.232 C284.64,52.544 286.464,49.44 287.712,47.296 C288.512,47.168 289.504,47.072 290.208,47.168 C290.688,47.168 290.816,46.944 290.592,46.56 C290.336,46.144 289.856,45.568 288.608,45.6 C289.376,43.936 289.376,42.88 289.024,41.984 C288.864,41.6 288.544,41.568 288.256,41.984 C287.712,42.688 286.816,44.192 285.824,45.952 C284.96,46.048 284.064,46.112 283.168,46.08 C282.688,46.048 282.496,46.272 282.816,46.72 C283.072,47.072 283.808,47.552 284.896,47.552 L284.896,47.552 Z M295.328,47.648 C293.728,46.688 290.496,48.416 288.448,52.448 C286.368,56.576 287.744,60.544 291.808,60.48 C294.24,60.448 296.768,58.88 297.984,56.992 C298.528,56.128 298.656,55.328 298.56,55.072 C298.432,54.752 298.144,54.784 297.984,55.04 C296.672,57.056 294.368,59.616 291.68,59.584 C289.792,59.552 289.12,56.896 290.88,53.28 C292.32,50.368 294.72,48.32 295.264,48.768 C295.712,49.12 294.752,50.496 294.4,51.648 C293.952,53.088 294.4,54.048 295.168,54.432 C295.584,54.656 295.712,54.56 295.84,54.176 C296.48,52.448 297.76,50.752 297.088,49.408 C296.704,48.672 296.192,48.16 295.328,47.648 L295.328,47.648 Z M310.144,57.088 C310.624,56.128 310.624,55.456 310.464,55.104 C310.336,54.848 310.016,54.848 309.888,55.136 C308.896,57.184 307.136,59.488 305.824,59.552 C304.64,59.616 304.48,58.112 305.28,56.256 C306.016,54.592 307.552,52.256 308.256,50.848 C309.088,49.216 308.096,47.616 307.008,47.488 C306.144,47.392 304.48,48.448 303.168,49.728 C304.544,47.584 306.24,44.992 307.008,43.712 C308.224,41.696 308.32,40.096 307.904,39.168 C307.744,38.784 307.424,38.752 307.136,39.136 C304.544,42.368 297.888,53.632 296.768,56.832 C296.096,58.752 296.384,59.648 296.896,60.224 C297.088,60.448 297.312,60.384 297.44,60.096 C298.208,58.144 299.392,55.904 300.544,54.016 C302.4,50.976 305.888,48.8 306.336,49.056 C306.848,49.344 304.064,52.672 303.008,55.776 C302.048,58.56 302.72,60.512 305.408,60.512 C307.296,60.512 309.248,58.912 310.144,57.088 L310.144,57.088 Z M312.384,54.528 C314.624,56.352 316.768,55.52 318.336,53.6 C319.68,51.968 319.936,50.016 319.36,49.248 C318.848,48.544 318.272,48.064 317.472,47.584 C315.872,46.656 312.608,48.32 310.528,52.448 C308.448,56.576 309.856,60.576 313.92,60.512 C316.384,60.48 318.848,59.008 320.192,57.056 C320.768,56.224 320.864,55.328 320.736,55.072 C320.608,54.784 320.352,54.784 320.192,55.04 C318.816,57.152 316.48,59.712 313.824,59.584 C312.128,59.488 311.36,57.472 312.384,54.528 L312.384,54.528 Z M312.672,53.824 C312.736,53.664 312.832,53.472 312.928,53.28 C314.432,50.24 317.088,48.32 317.76,48.864 C318.208,49.216 317.504,50.88 316.48,52.224 C315.552,53.44 314.24,54.816 312.672,53.824 L312.672,53.824 Z M324.8,50.592 C325.152,49.44 325.184,48.352 324.704,47.552 C324.512,47.232 324.256,47.2 324.032,47.552 C322.016,50.528 319.552,54.976 318.912,56.992 C318.4,58.592 318.592,59.648 319.232,60.288 C319.52,60.576 319.712,60.448 319.84,60.16 C321.216,57.152 322.624,54.08 324.512,52.032 C326.56,49.792 328.416,48.896 328.736,49.024 C329.312,49.28 326.496,52.672 325.44,55.808 C324.512,58.592 325.152,60.576 327.872,60.576 C329.728,60.576 331.744,58.944 332.608,57.152 C333.056,56.224 333.12,55.488 332.896,55.136 C332.736,54.88 332.512,54.88 332.352,55.168 C331.136,57.408 329.568,59.52 328.256,59.584 C327.104,59.648 326.912,58.144 327.744,56.288 C328.48,54.624 330.048,52.256 330.72,50.848 C331.52,49.184 330.528,47.616 329.472,47.456 C328.416,47.296 326.24,49.056 324.8,50.592 L324.8,50.592 Z"></path>
            </g>
        </g>
    </g>
</svg>